<?xml version="1.0" standalone="no"?>
<svg xmlns="http://www.w3.org/2000/svg" version="1.1" width="492" height="492">
	<!-- Created with https://api.qrserver.com (QR Code API, see goQR.me/api for information) -->
	<title>QR Code</title>
	<desc>https://app-link.fleetcodes.com/prod/app-release.apk</desc>
	<rect style="fill:rgb(255, 255, 255);fill-opacity:1" x="0" y="0" width="492" height="492" />
	<g id="elements">
		<path style="fill:rgb(0, 0, 0)" d="M 0,0 l 12,0 0,12 -12,0 z M 12,0 l 12,0 0,12 -12,0 z M 24,0 l 12,0 0,12 -12,0 z M 36,0 l 12,0 0,12 -12,0 z M 48,0 l 12,0 0,12 -12,0 z M 60,0 l 12,0 0,12 -12,0 z M 72,0 l 12,0 0,12 -12,0 z M 96,0 l 12,0 0,12 -12,0 z M 120,0 l 12,0 0,12 -12,0 z M 144,0 l 12,0 0,12 -12,0 z M 156,0 l 12,0 0,12 -12,0 z M 168,0 l 12,0 0,12 -12,0 z M 180,0 l 12,0 0,12 -12,0 z M 192,0 l 12,0 0,12 -12,0 z M 252,0 l 12,0 0,12 -12,0 z M 264,0 l 12,0 0,12 -12,0 z M 276,0 l 12,0 0,12 -12,0 z M 336,0 l 12,0 0,12 -12,0 z M 348,0 l 12,0 0,12 -12,0 z M 372,0 l 12,0 0,12 -12,0 z M 384,0 l 12,0 0,12 -12,0 z M 408,0 l 12,0 0,12 -12,0 z M 420,0 l 12,0 0,12 -12,0 z M 432,0 l 12,0 0,12 -12,0 z M 444,0 l 12,0 0,12 -12,0 z M 456,0 l 12,0 0,12 -12,0 z M 468,0 l 12,0 0,12 -12,0 z M 480,0 l 12,0 0,12 -12,0 z M 0,12 l 12,0 0,12 -12,0 z M 72,12 l 12,0 0,12 -12,0 z M 96,12 l 12,0 0,12 -12,0 z M 120,12 l 12,0 0,12 -12,0 z M 132,12 l 12,0 0,12 -12,0 z M 168,12 l 12,0 0,12 -12,0 z M 204,12 l 12,0 0,12 -12,0 z M 240,12 l 12,0 0,12 -12,0 z M 252,12 l 12,0 0,12 -12,0 z M 324,12 l 12,0 0,12 -12,0 z M 336,12 l 12,0 0,12 -12,0 z M 348,12 l 12,0 0,12 -12,0 z M 384,12 l 12,0 0,12 -12,0 z M 408,12 l 12,0 0,12 -12,0 z M 480,12 l 12,0 0,12 -12,0 z M 0,24 l 12,0 0,12 -12,0 z M 24,24 l 12,0 0,12 -12,0 z M 36,24 l 12,0 0,12 -12,0 z M 48,24 l 12,0 0,12 -12,0 z M 72,24 l 12,0 0,12 -12,0 z M 96,24 l 12,0 0,12 -12,0 z M 120,24 l 12,0 0,12 -12,0 z M 144,24 l 12,0 0,12 -12,0 z M 168,24 l 12,0 0,12 -12,0 z M 192,24 l 12,0 0,12 -12,0 z M 216,24 l 12,0 0,12 -12,0 z M 228,24 l 12,0 0,12 -12,0 z M 252,24 l 12,0 0,12 -12,0 z M 264,24 l 12,0 0,12 -12,0 z M 276,24 l 12,0 0,12 -12,0 z M 312,24 l 12,0 0,12 -12,0 z M 324,24 l 12,0 0,12 -12,0 z M 336,24 l 12,0 0,12 -12,0 z M 348,24 l 12,0 0,12 -12,0 z M 360,24 l 12,0 0,12 -12,0 z M 408,24 l 12,0 0,12 -12,0 z M 432,24 l 12,0 0,12 -12,0 z M 444,24 l 12,0 0,12 -12,0 z M 456,24 l 12,0 0,12 -12,0 z M 480,24 l 12,0 0,12 -12,0 z M 0,36 l 12,0 0,12 -12,0 z M 24,36 l 12,0 0,12 -12,0 z M 36,36 l 12,0 0,12 -12,0 z M 48,36 l 12,0 0,12 -12,0 z M 72,36 l 12,0 0,12 -12,0 z M 132,36 l 12,0 0,12 -12,0 z M 192,36 l 12,0 0,12 -12,0 z M 216,36 l 12,0 0,12 -12,0 z M 324,36 l 12,0 0,12 -12,0 z M 408,36 l 12,0 0,12 -12,0 z M 432,36 l 12,0 0,12 -12,0 z M 444,36 l 12,0 0,12 -12,0 z M 456,36 l 12,0 0,12 -12,0 z M 480,36 l 12,0 0,12 -12,0 z M 0,48 l 12,0 0,12 -12,0 z M 24,48 l 12,0 0,12 -12,0 z M 36,48 l 12,0 0,12 -12,0 z M 48,48 l 12,0 0,12 -12,0 z M 72,48 l 12,0 0,12 -12,0 z M 120,48 l 12,0 0,12 -12,0 z M 156,48 l 12,0 0,12 -12,0 z M 192,48 l 12,0 0,12 -12,0 z M 204,48 l 12,0 0,12 -12,0 z M 216,48 l 12,0 0,12 -12,0 z M 228,48 l 12,0 0,12 -12,0 z M 240,48 l 12,0 0,12 -12,0 z M 252,48 l 12,0 0,12 -12,0 z M 264,48 l 12,0 0,12 -12,0 z M 276,48 l 12,0 0,12 -12,0 z M 288,48 l 12,0 0,12 -12,0 z M 312,48 l 12,0 0,12 -12,0 z M 336,48 l 12,0 0,12 -12,0 z M 360,48 l 12,0 0,12 -12,0 z M 372,48 l 12,0 0,12 -12,0 z M 384,48 l 12,0 0,12 -12,0 z M 408,48 l 12,0 0,12 -12,0 z M 432,48 l 12,0 0,12 -12,0 z M 444,48 l 12,0 0,12 -12,0 z M 456,48 l 12,0 0,12 -12,0 z M 480,48 l 12,0 0,12 -12,0 z M 0,60 l 12,0 0,12 -12,0 z M 72,60 l 12,0 0,12 -12,0 z M 96,60 l 12,0 0,12 -12,0 z M 120,60 l 12,0 0,12 -12,0 z M 132,60 l 12,0 0,12 -12,0 z M 144,60 l 12,0 0,12 -12,0 z M 156,60 l 12,0 0,12 -12,0 z M 168,60 l 12,0 0,12 -12,0 z M 180,60 l 12,0 0,12 -12,0 z M 192,60 l 12,0 0,12 -12,0 z M 204,60 l 12,0 0,12 -12,0 z M 216,60 l 12,0 0,12 -12,0 z M 228,60 l 12,0 0,12 -12,0 z M 240,60 l 12,0 0,12 -12,0 z M 264,60 l 12,0 0,12 -12,0 z M 276,60 l 12,0 0,12 -12,0 z M 300,60 l 12,0 0,12 -12,0 z M 312,60 l 12,0 0,12 -12,0 z M 324,60 l 12,0 0,12 -12,0 z M 360,60 l 12,0 0,12 -12,0 z M 384,60 l 12,0 0,12 -12,0 z M 408,60 l 12,0 0,12 -12,0 z M 480,60 l 12,0 0,12 -12,0 z M 0,72 l 12,0 0,12 -12,0 z M 12,72 l 12,0 0,12 -12,0 z M 24,72 l 12,0 0,12 -12,0 z M 36,72 l 12,0 0,12 -12,0 z M 48,72 l 12,0 0,12 -12,0 z M 60,72 l 12,0 0,12 -12,0 z M 72,72 l 12,0 0,12 -12,0 z M 96,72 l 12,0 0,12 -12,0 z M 120,72 l 12,0 0,12 -12,0 z M 144,72 l 12,0 0,12 -12,0 z M 168,72 l 12,0 0,12 -12,0 z M 192,72 l 12,0 0,12 -12,0 z M 216,72 l 12,0 0,12 -12,0 z M 240,72 l 12,0 0,12 -12,0 z M 264,72 l 12,0 0,12 -12,0 z M 288,72 l 12,0 0,12 -12,0 z M 312,72 l 12,0 0,12 -12,0 z M 336,72 l 12,0 0,12 -12,0 z M 360,72 l 12,0 0,12 -12,0 z M 384,72 l 12,0 0,12 -12,0 z M 408,72 l 12,0 0,12 -12,0 z M 420,72 l 12,0 0,12 -12,0 z M 432,72 l 12,0 0,12 -12,0 z M 444,72 l 12,0 0,12 -12,0 z M 456,72 l 12,0 0,12 -12,0 z M 468,72 l 12,0 0,12 -12,0 z M 480,72 l 12,0 0,12 -12,0 z M 96,84 l 12,0 0,12 -12,0 z M 108,84 l 12,0 0,12 -12,0 z M 120,84 l 12,0 0,12 -12,0 z M 144,84 l 12,0 0,12 -12,0 z M 156,84 l 12,0 0,12 -12,0 z M 168,84 l 12,0 0,12 -12,0 z M 216,84 l 12,0 0,12 -12,0 z M 228,84 l 12,0 0,12 -12,0 z M 240,84 l 12,0 0,12 -12,0 z M 276,84 l 12,0 0,12 -12,0 z M 288,84 l 12,0 0,12 -12,0 z M 336,84 l 12,0 0,12 -12,0 z M 372,84 l 12,0 0,12 -12,0 z M 24,96 l 12,0 0,12 -12,0 z M 36,96 l 12,0 0,12 -12,0 z M 48,96 l 12,0 0,12 -12,0 z M 72,96 l 12,0 0,12 -12,0 z M 96,96 l 12,0 0,12 -12,0 z M 108,96 l 12,0 0,12 -12,0 z M 120,96 l 12,0 0,12 -12,0 z M 156,96 l 12,0 0,12 -12,0 z M 168,96 l 12,0 0,12 -12,0 z M 192,96 l 12,0 0,12 -12,0 z M 204,96 l 12,0 0,12 -12,0 z M 216,96 l 12,0 0,12 -12,0 z M 228,96 l 12,0 0,12 -12,0 z M 276,96 l 12,0 0,12 -12,0 z M 288,96 l 12,0 0,12 -12,0 z M 300,96 l 12,0 0,12 -12,0 z M 348,96 l 12,0 0,12 -12,0 z M 396,96 l 12,0 0,12 -12,0 z M 408,96 l 12,0 0,12 -12,0 z M 420,96 l 12,0 0,12 -12,0 z M 456,96 l 12,0 0,12 -12,0 z M 468,96 l 12,0 0,12 -12,0 z M 480,96 l 12,0 0,12 -12,0 z M 36,108 l 12,0 0,12 -12,0 z M 60,108 l 12,0 0,12 -12,0 z M 84,108 l 12,0 0,12 -12,0 z M 108,108 l 12,0 0,12 -12,0 z M 120,108 l 12,0 0,12 -12,0 z M 132,108 l 12,0 0,12 -12,0 z M 156,108 l 12,0 0,12 -12,0 z M 168,108 l 12,0 0,12 -12,0 z M 192,108 l 12,0 0,12 -12,0 z M 228,108 l 12,0 0,12 -12,0 z M 240,108 l 12,0 0,12 -12,0 z M 264,108 l 12,0 0,12 -12,0 z M 276,108 l 12,0 0,12 -12,0 z M 288,108 l 12,0 0,12 -12,0 z M 336,108 l 12,0 0,12 -12,0 z M 348,108 l 12,0 0,12 -12,0 z M 372,108 l 12,0 0,12 -12,0 z M 384,108 l 12,0 0,12 -12,0 z M 396,108 l 12,0 0,12 -12,0 z M 408,108 l 12,0 0,12 -12,0 z M 420,108 l 12,0 0,12 -12,0 z M 432,108 l 12,0 0,12 -12,0 z M 456,108 l 12,0 0,12 -12,0 z M 468,108 l 12,0 0,12 -12,0 z M 480,108 l 12,0 0,12 -12,0 z M 0,120 l 12,0 0,12 -12,0 z M 12,120 l 12,0 0,12 -12,0 z M 48,120 l 12,0 0,12 -12,0 z M 72,120 l 12,0 0,12 -12,0 z M 84,120 l 12,0 0,12 -12,0 z M 168,120 l 12,0 0,12 -12,0 z M 180,120 l 12,0 0,12 -12,0 z M 192,120 l 12,0 0,12 -12,0 z M 204,120 l 12,0 0,12 -12,0 z M 216,120 l 12,0 0,12 -12,0 z M 228,120 l 12,0 0,12 -12,0 z M 252,120 l 12,0 0,12 -12,0 z M 288,120 l 12,0 0,12 -12,0 z M 312,120 l 12,0 0,12 -12,0 z M 324,120 l 12,0 0,12 -12,0 z M 348,120 l 12,0 0,12 -12,0 z M 384,120 l 12,0 0,12 -12,0 z M 408,120 l 12,0 0,12 -12,0 z M 36,132 l 12,0 0,12 -12,0 z M 60,132 l 12,0 0,12 -12,0 z M 84,132 l 12,0 0,12 -12,0 z M 108,132 l 12,0 0,12 -12,0 z M 120,132 l 12,0 0,12 -12,0 z M 168,132 l 12,0 0,12 -12,0 z M 192,132 l 12,0 0,12 -12,0 z M 228,132 l 12,0 0,12 -12,0 z M 240,132 l 12,0 0,12 -12,0 z M 276,132 l 12,0 0,12 -12,0 z M 312,132 l 12,0 0,12 -12,0 z M 324,132 l 12,0 0,12 -12,0 z M 336,132 l 12,0 0,12 -12,0 z M 372,132 l 12,0 0,12 -12,0 z M 384,132 l 12,0 0,12 -12,0 z M 396,132 l 12,0 0,12 -12,0 z M 408,132 l 12,0 0,12 -12,0 z M 432,132 l 12,0 0,12 -12,0 z M 444,132 l 12,0 0,12 -12,0 z M 0,144 l 12,0 0,12 -12,0 z M 24,144 l 12,0 0,12 -12,0 z M 36,144 l 12,0 0,12 -12,0 z M 60,144 l 12,0 0,12 -12,0 z M 72,144 l 12,0 0,12 -12,0 z M 132,144 l 12,0 0,12 -12,0 z M 144,144 l 12,0 0,12 -12,0 z M 240,144 l 12,0 0,12 -12,0 z M 264,144 l 12,0 0,12 -12,0 z M 276,144 l 12,0 0,12 -12,0 z M 312,144 l 12,0 0,12 -12,0 z M 348,144 l 12,0 0,12 -12,0 z M 372,144 l 12,0 0,12 -12,0 z M 444,144 l 12,0 0,12 -12,0 z M 456,144 l 12,0 0,12 -12,0 z M 48,156 l 12,0 0,12 -12,0 z M 60,156 l 12,0 0,12 -12,0 z M 84,156 l 12,0 0,12 -12,0 z M 120,156 l 12,0 0,12 -12,0 z M 180,156 l 12,0 0,12 -12,0 z M 192,156 l 12,0 0,12 -12,0 z M 240,156 l 12,0 0,12 -12,0 z M 288,156 l 12,0 0,12 -12,0 z M 300,156 l 12,0 0,12 -12,0 z M 312,156 l 12,0 0,12 -12,0 z M 324,156 l 12,0 0,12 -12,0 z M 336,156 l 12,0 0,12 -12,0 z M 360,156 l 12,0 0,12 -12,0 z M 396,156 l 12,0 0,12 -12,0 z M 408,156 l 12,0 0,12 -12,0 z M 420,156 l 12,0 0,12 -12,0 z M 432,156 l 12,0 0,12 -12,0 z M 456,156 l 12,0 0,12 -12,0 z M 468,156 l 12,0 0,12 -12,0 z M 480,156 l 12,0 0,12 -12,0 z M 0,168 l 12,0 0,12 -12,0 z M 12,168 l 12,0 0,12 -12,0 z M 24,168 l 12,0 0,12 -12,0 z M 36,168 l 12,0 0,12 -12,0 z M 72,168 l 12,0 0,12 -12,0 z M 96,168 l 12,0 0,12 -12,0 z M 108,168 l 12,0 0,12 -12,0 z M 132,168 l 12,0 0,12 -12,0 z M 144,168 l 12,0 0,12 -12,0 z M 168,168 l 12,0 0,12 -12,0 z M 180,168 l 12,0 0,12 -12,0 z M 204,168 l 12,0 0,12 -12,0 z M 228,168 l 12,0 0,12 -12,0 z M 240,168 l 12,0 0,12 -12,0 z M 252,168 l 12,0 0,12 -12,0 z M 276,168 l 12,0 0,12 -12,0 z M 360,168 l 12,0 0,12 -12,0 z M 384,168 l 12,0 0,12 -12,0 z M 396,168 l 12,0 0,12 -12,0 z M 432,168 l 12,0 0,12 -12,0 z M 444,168 l 12,0 0,12 -12,0 z M 456,168 l 12,0 0,12 -12,0 z M 96,180 l 12,0 0,12 -12,0 z M 108,180 l 12,0 0,12 -12,0 z M 144,180 l 12,0 0,12 -12,0 z M 156,180 l 12,0 0,12 -12,0 z M 168,180 l 12,0 0,12 -12,0 z M 180,180 l 12,0 0,12 -12,0 z M 204,180 l 12,0 0,12 -12,0 z M 240,180 l 12,0 0,12 -12,0 z M 252,180 l 12,0 0,12 -12,0 z M 288,180 l 12,0 0,12 -12,0 z M 336,180 l 12,0 0,12 -12,0 z M 360,180 l 12,0 0,12 -12,0 z M 372,180 l 12,0 0,12 -12,0 z M 408,180 l 12,0 0,12 -12,0 z M 420,180 l 12,0 0,12 -12,0 z M 480,180 l 12,0 0,12 -12,0 z M 0,192 l 12,0 0,12 -12,0 z M 36,192 l 12,0 0,12 -12,0 z M 48,192 l 12,0 0,12 -12,0 z M 72,192 l 12,0 0,12 -12,0 z M 96,192 l 12,0 0,12 -12,0 z M 120,192 l 12,0 0,12 -12,0 z M 192,192 l 12,0 0,12 -12,0 z M 216,192 l 12,0 0,12 -12,0 z M 240,192 l 12,0 0,12 -12,0 z M 252,192 l 12,0 0,12 -12,0 z M 288,192 l 12,0 0,12 -12,0 z M 300,192 l 12,0 0,12 -12,0 z M 348,192 l 12,0 0,12 -12,0 z M 372,192 l 12,0 0,12 -12,0 z M 396,192 l 12,0 0,12 -12,0 z M 420,192 l 12,0 0,12 -12,0 z M 456,192 l 12,0 0,12 -12,0 z M 480,192 l 12,0 0,12 -12,0 z M 0,204 l 12,0 0,12 -12,0 z M 24,204 l 12,0 0,12 -12,0 z M 36,204 l 12,0 0,12 -12,0 z M 48,204 l 12,0 0,12 -12,0 z M 84,204 l 12,0 0,12 -12,0 z M 96,204 l 12,0 0,12 -12,0 z M 108,204 l 12,0 0,12 -12,0 z M 120,204 l 12,0 0,12 -12,0 z M 132,204 l 12,0 0,12 -12,0 z M 144,204 l 12,0 0,12 -12,0 z M 156,204 l 12,0 0,12 -12,0 z M 168,204 l 12,0 0,12 -12,0 z M 180,204 l 12,0 0,12 -12,0 z M 204,204 l 12,0 0,12 -12,0 z M 264,204 l 12,0 0,12 -12,0 z M 312,204 l 12,0 0,12 -12,0 z M 336,204 l 12,0 0,12 -12,0 z M 372,204 l 12,0 0,12 -12,0 z M 384,204 l 12,0 0,12 -12,0 z M 408,204 l 12,0 0,12 -12,0 z M 420,204 l 12,0 0,12 -12,0 z M 432,204 l 12,0 0,12 -12,0 z M 444,204 l 12,0 0,12 -12,0 z M 456,204 l 12,0 0,12 -12,0 z M 468,204 l 12,0 0,12 -12,0 z M 480,204 l 12,0 0,12 -12,0 z M 24,216 l 12,0 0,12 -12,0 z M 36,216 l 12,0 0,12 -12,0 z M 48,216 l 12,0 0,12 -12,0 z M 60,216 l 12,0 0,12 -12,0 z M 72,216 l 12,0 0,12 -12,0 z M 84,216 l 12,0 0,12 -12,0 z M 96,216 l 12,0 0,12 -12,0 z M 120,216 l 12,0 0,12 -12,0 z M 156,216 l 12,0 0,12 -12,0 z M 168,216 l 12,0 0,12 -12,0 z M 204,216 l 12,0 0,12 -12,0 z M 216,216 l 12,0 0,12 -12,0 z M 276,216 l 12,0 0,12 -12,0 z M 288,216 l 12,0 0,12 -12,0 z M 300,216 l 12,0 0,12 -12,0 z M 312,216 l 12,0 0,12 -12,0 z M 324,216 l 12,0 0,12 -12,0 z M 360,216 l 12,0 0,12 -12,0 z M 384,216 l 12,0 0,12 -12,0 z M 432,216 l 12,0 0,12 -12,0 z M 444,216 l 12,0 0,12 -12,0 z M 12,228 l 12,0 0,12 -12,0 z M 84,228 l 12,0 0,12 -12,0 z M 96,228 l 12,0 0,12 -12,0 z M 120,228 l 12,0 0,12 -12,0 z M 144,228 l 12,0 0,12 -12,0 z M 156,228 l 12,0 0,12 -12,0 z M 168,228 l 12,0 0,12 -12,0 z M 180,228 l 12,0 0,12 -12,0 z M 192,228 l 12,0 0,12 -12,0 z M 228,228 l 12,0 0,12 -12,0 z M 276,228 l 12,0 0,12 -12,0 z M 300,228 l 12,0 0,12 -12,0 z M 312,228 l 12,0 0,12 -12,0 z M 372,228 l 12,0 0,12 -12,0 z M 384,228 l 12,0 0,12 -12,0 z M 432,228 l 12,0 0,12 -12,0 z M 468,228 l 12,0 0,12 -12,0 z M 480,228 l 12,0 0,12 -12,0 z M 0,240 l 12,0 0,12 -12,0 z M 12,240 l 12,0 0,12 -12,0 z M 24,240 l 12,0 0,12 -12,0 z M 36,240 l 12,0 0,12 -12,0 z M 72,240 l 12,0 0,12 -12,0 z M 156,240 l 12,0 0,12 -12,0 z M 168,240 l 12,0 0,12 -12,0 z M 180,240 l 12,0 0,12 -12,0 z M 216,240 l 12,0 0,12 -12,0 z M 240,240 l 12,0 0,12 -12,0 z M 252,240 l 12,0 0,12 -12,0 z M 300,240 l 12,0 0,12 -12,0 z M 324,240 l 12,0 0,12 -12,0 z M 360,240 l 12,0 0,12 -12,0 z M 372,240 l 12,0 0,12 -12,0 z M 456,240 l 12,0 0,12 -12,0 z M 480,240 l 12,0 0,12 -12,0 z M 24,252 l 12,0 0,12 -12,0 z M 48,252 l 12,0 0,12 -12,0 z M 192,252 l 12,0 0,12 -12,0 z M 276,252 l 12,0 0,12 -12,0 z M 300,252 l 12,0 0,12 -12,0 z M 312,252 l 12,0 0,12 -12,0 z M 372,252 l 12,0 0,12 -12,0 z M 384,252 l 12,0 0,12 -12,0 z M 396,252 l 12,0 0,12 -12,0 z M 408,252 l 12,0 0,12 -12,0 z M 432,252 l 12,0 0,12 -12,0 z M 468,252 l 12,0 0,12 -12,0 z M 480,252 l 12,0 0,12 -12,0 z M 36,264 l 12,0 0,12 -12,0 z M 72,264 l 12,0 0,12 -12,0 z M 84,264 l 12,0 0,12 -12,0 z M 120,264 l 12,0 0,12 -12,0 z M 132,264 l 12,0 0,12 -12,0 z M 156,264 l 12,0 0,12 -12,0 z M 168,264 l 12,0 0,12 -12,0 z M 192,264 l 12,0 0,12 -12,0 z M 204,264 l 12,0 0,12 -12,0 z M 228,264 l 12,0 0,12 -12,0 z M 240,264 l 12,0 0,12 -12,0 z M 300,264 l 12,0 0,12 -12,0 z M 312,264 l 12,0 0,12 -12,0 z M 324,264 l 12,0 0,12 -12,0 z M 336,264 l 12,0 0,12 -12,0 z M 360,264 l 12,0 0,12 -12,0 z M 408,264 l 12,0 0,12 -12,0 z M 420,264 l 12,0 0,12 -12,0 z M 432,264 l 12,0 0,12 -12,0 z M 444,264 l 12,0 0,12 -12,0 z M 0,276 l 12,0 0,12 -12,0 z M 36,276 l 12,0 0,12 -12,0 z M 108,276 l 12,0 0,12 -12,0 z M 120,276 l 12,0 0,12 -12,0 z M 132,276 l 12,0 0,12 -12,0 z M 156,276 l 12,0 0,12 -12,0 z M 168,276 l 12,0 0,12 -12,0 z M 204,276 l 12,0 0,12 -12,0 z M 228,276 l 12,0 0,12 -12,0 z M 264,276 l 12,0 0,12 -12,0 z M 300,276 l 12,0 0,12 -12,0 z M 312,276 l 12,0 0,12 -12,0 z M 360,276 l 12,0 0,12 -12,0 z M 384,276 l 12,0 0,12 -12,0 z M 408,276 l 12,0 0,12 -12,0 z M 420,276 l 12,0 0,12 -12,0 z M 432,276 l 12,0 0,12 -12,0 z M 444,276 l 12,0 0,12 -12,0 z M 468,276 l 12,0 0,12 -12,0 z M 12,288 l 12,0 0,12 -12,0 z M 24,288 l 12,0 0,12 -12,0 z M 36,288 l 12,0 0,12 -12,0 z M 72,288 l 12,0 0,12 -12,0 z M 84,288 l 12,0 0,12 -12,0 z M 96,288 l 12,0 0,12 -12,0 z M 144,288 l 12,0 0,12 -12,0 z M 180,288 l 12,0 0,12 -12,0 z M 216,288 l 12,0 0,12 -12,0 z M 240,288 l 12,0 0,12 -12,0 z M 252,288 l 12,0 0,12 -12,0 z M 264,288 l 12,0 0,12 -12,0 z M 288,288 l 12,0 0,12 -12,0 z M 312,288 l 12,0 0,12 -12,0 z M 324,288 l 12,0 0,12 -12,0 z M 348,288 l 12,0 0,12 -12,0 z M 420,288 l 12,0 0,12 -12,0 z M 444,288 l 12,0 0,12 -12,0 z M 456,288 l 12,0 0,12 -12,0 z M 0,300 l 12,0 0,12 -12,0 z M 36,300 l 12,0 0,12 -12,0 z M 48,300 l 12,0 0,12 -12,0 z M 60,300 l 12,0 0,12 -12,0 z M 84,300 l 12,0 0,12 -12,0 z M 108,300 l 12,0 0,12 -12,0 z M 156,300 l 12,0 0,12 -12,0 z M 168,300 l 12,0 0,12 -12,0 z M 204,300 l 12,0 0,12 -12,0 z M 216,300 l 12,0 0,12 -12,0 z M 228,300 l 12,0 0,12 -12,0 z M 264,300 l 12,0 0,12 -12,0 z M 276,300 l 12,0 0,12 -12,0 z M 312,300 l 12,0 0,12 -12,0 z M 336,300 l 12,0 0,12 -12,0 z M 372,300 l 12,0 0,12 -12,0 z M 396,300 l 12,0 0,12 -12,0 z M 408,300 l 12,0 0,12 -12,0 z M 420,300 l 12,0 0,12 -12,0 z M 432,300 l 12,0 0,12 -12,0 z M 444,300 l 12,0 0,12 -12,0 z M 468,300 l 12,0 0,12 -12,0 z M 480,300 l 12,0 0,12 -12,0 z M 0,312 l 12,0 0,12 -12,0 z M 12,312 l 12,0 0,12 -12,0 z M 24,312 l 12,0 0,12 -12,0 z M 36,312 l 12,0 0,12 -12,0 z M 48,312 l 12,0 0,12 -12,0 z M 60,312 l 12,0 0,12 -12,0 z M 72,312 l 12,0 0,12 -12,0 z M 96,312 l 12,0 0,12 -12,0 z M 108,312 l 12,0 0,12 -12,0 z M 120,312 l 12,0 0,12 -12,0 z M 132,312 l 12,0 0,12 -12,0 z M 180,312 l 12,0 0,12 -12,0 z M 192,312 l 12,0 0,12 -12,0 z M 228,312 l 12,0 0,12 -12,0 z M 312,312 l 12,0 0,12 -12,0 z M 324,312 l 12,0 0,12 -12,0 z M 336,312 l 12,0 0,12 -12,0 z M 384,312 l 12,0 0,12 -12,0 z M 396,312 l 12,0 0,12 -12,0 z M 432,312 l 12,0 0,12 -12,0 z M 0,324 l 12,0 0,12 -12,0 z M 12,324 l 12,0 0,12 -12,0 z M 24,324 l 12,0 0,12 -12,0 z M 36,324 l 12,0 0,12 -12,0 z M 48,324 l 12,0 0,12 -12,0 z M 60,324 l 12,0 0,12 -12,0 z M 132,324 l 12,0 0,12 -12,0 z M 168,324 l 12,0 0,12 -12,0 z M 180,324 l 12,0 0,12 -12,0 z M 192,324 l 12,0 0,12 -12,0 z M 216,324 l 12,0 0,12 -12,0 z M 228,324 l 12,0 0,12 -12,0 z M 264,324 l 12,0 0,12 -12,0 z M 276,324 l 12,0 0,12 -12,0 z M 288,324 l 12,0 0,12 -12,0 z M 324,324 l 12,0 0,12 -12,0 z M 336,324 l 12,0 0,12 -12,0 z M 360,324 l 12,0 0,12 -12,0 z M 372,324 l 12,0 0,12 -12,0 z M 384,324 l 12,0 0,12 -12,0 z M 432,324 l 12,0 0,12 -12,0 z M 444,324 l 12,0 0,12 -12,0 z M 468,324 l 12,0 0,12 -12,0 z M 12,336 l 12,0 0,12 -12,0 z M 36,336 l 12,0 0,12 -12,0 z M 48,336 l 12,0 0,12 -12,0 z M 60,336 l 12,0 0,12 -12,0 z M 72,336 l 12,0 0,12 -12,0 z M 180,336 l 12,0 0,12 -12,0 z M 204,336 l 12,0 0,12 -12,0 z M 228,336 l 12,0 0,12 -12,0 z M 252,336 l 12,0 0,12 -12,0 z M 276,336 l 12,0 0,12 -12,0 z M 300,336 l 12,0 0,12 -12,0 z M 312,336 l 12,0 0,12 -12,0 z M 336,336 l 12,0 0,12 -12,0 z M 348,336 l 12,0 0,12 -12,0 z M 372,336 l 12,0 0,12 -12,0 z M 444,336 l 12,0 0,12 -12,0 z M 456,336 l 12,0 0,12 -12,0 z M 480,336 l 12,0 0,12 -12,0 z M 0,348 l 12,0 0,12 -12,0 z M 84,348 l 12,0 0,12 -12,0 z M 96,348 l 12,0 0,12 -12,0 z M 144,348 l 12,0 0,12 -12,0 z M 156,348 l 12,0 0,12 -12,0 z M 192,348 l 12,0 0,12 -12,0 z M 216,348 l 12,0 0,12 -12,0 z M 252,348 l 12,0 0,12 -12,0 z M 276,348 l 12,0 0,12 -12,0 z M 288,348 l 12,0 0,12 -12,0 z M 324,348 l 12,0 0,12 -12,0 z M 360,348 l 12,0 0,12 -12,0 z M 372,348 l 12,0 0,12 -12,0 z M 384,348 l 12,0 0,12 -12,0 z M 408,348 l 12,0 0,12 -12,0 z M 420,348 l 12,0 0,12 -12,0 z M 432,348 l 12,0 0,12 -12,0 z M 444,348 l 12,0 0,12 -12,0 z M 456,348 l 12,0 0,12 -12,0 z M 468,348 l 12,0 0,12 -12,0 z M 480,348 l 12,0 0,12 -12,0 z M 0,360 l 12,0 0,12 -12,0 z M 36,360 l 12,0 0,12 -12,0 z M 72,360 l 12,0 0,12 -12,0 z M 84,360 l 12,0 0,12 -12,0 z M 96,360 l 12,0 0,12 -12,0 z M 108,360 l 12,0 0,12 -12,0 z M 120,360 l 12,0 0,12 -12,0 z M 180,360 l 12,0 0,12 -12,0 z M 192,360 l 12,0 0,12 -12,0 z M 216,360 l 12,0 0,12 -12,0 z M 228,360 l 12,0 0,12 -12,0 z M 240,360 l 12,0 0,12 -12,0 z M 252,360 l 12,0 0,12 -12,0 z M 264,360 l 12,0 0,12 -12,0 z M 288,360 l 12,0 0,12 -12,0 z M 300,360 l 12,0 0,12 -12,0 z M 324,360 l 12,0 0,12 -12,0 z M 336,360 l 12,0 0,12 -12,0 z M 360,360 l 12,0 0,12 -12,0 z M 396,360 l 12,0 0,12 -12,0 z M 408,360 l 12,0 0,12 -12,0 z M 456,360 l 12,0 0,12 -12,0 z M 0,372 l 12,0 0,12 -12,0 z M 48,372 l 12,0 0,12 -12,0 z M 60,372 l 12,0 0,12 -12,0 z M 96,372 l 12,0 0,12 -12,0 z M 192,372 l 12,0 0,12 -12,0 z M 216,372 l 12,0 0,12 -12,0 z M 252,372 l 12,0 0,12 -12,0 z M 264,372 l 12,0 0,12 -12,0 z M 300,372 l 12,0 0,12 -12,0 z M 324,372 l 12,0 0,12 -12,0 z M 360,372 l 12,0 0,12 -12,0 z M 396,372 l 12,0 0,12 -12,0 z M 408,372 l 12,0 0,12 -12,0 z M 420,372 l 12,0 0,12 -12,0 z M 432,372 l 12,0 0,12 -12,0 z M 444,372 l 12,0 0,12 -12,0 z M 480,372 l 12,0 0,12 -12,0 z M 0,384 l 12,0 0,12 -12,0 z M 36,384 l 12,0 0,12 -12,0 z M 48,384 l 12,0 0,12 -12,0 z M 72,384 l 12,0 0,12 -12,0 z M 108,384 l 12,0 0,12 -12,0 z M 144,384 l 12,0 0,12 -12,0 z M 180,384 l 12,0 0,12 -12,0 z M 192,384 l 12,0 0,12 -12,0 z M 264,384 l 12,0 0,12 -12,0 z M 276,384 l 12,0 0,12 -12,0 z M 324,384 l 12,0 0,12 -12,0 z M 336,384 l 12,0 0,12 -12,0 z M 348,384 l 12,0 0,12 -12,0 z M 360,384 l 12,0 0,12 -12,0 z M 384,384 l 12,0 0,12 -12,0 z M 396,384 l 12,0 0,12 -12,0 z M 408,384 l 12,0 0,12 -12,0 z M 420,384 l 12,0 0,12 -12,0 z M 432,384 l 12,0 0,12 -12,0 z M 456,384 l 12,0 0,12 -12,0 z M 468,384 l 12,0 0,12 -12,0 z M 96,396 l 12,0 0,12 -12,0 z M 168,396 l 12,0 0,12 -12,0 z M 204,396 l 12,0 0,12 -12,0 z M 216,396 l 12,0 0,12 -12,0 z M 228,396 l 12,0 0,12 -12,0 z M 240,396 l 12,0 0,12 -12,0 z M 276,396 l 12,0 0,12 -12,0 z M 312,396 l 12,0 0,12 -12,0 z M 336,396 l 12,0 0,12 -12,0 z M 348,396 l 12,0 0,12 -12,0 z M 360,396 l 12,0 0,12 -12,0 z M 384,396 l 12,0 0,12 -12,0 z M 432,396 l 12,0 0,12 -12,0 z M 444,396 l 12,0 0,12 -12,0 z M 456,396 l 12,0 0,12 -12,0 z M 468,396 l 12,0 0,12 -12,0 z M 480,396 l 12,0 0,12 -12,0 z M 0,408 l 12,0 0,12 -12,0 z M 12,408 l 12,0 0,12 -12,0 z M 24,408 l 12,0 0,12 -12,0 z M 36,408 l 12,0 0,12 -12,0 z M 48,408 l 12,0 0,12 -12,0 z M 60,408 l 12,0 0,12 -12,0 z M 72,408 l 12,0 0,12 -12,0 z M 120,408 l 12,0 0,12 -12,0 z M 132,408 l 12,0 0,12 -12,0 z M 156,408 l 12,0 0,12 -12,0 z M 204,408 l 12,0 0,12 -12,0 z M 252,408 l 12,0 0,12 -12,0 z M 264,408 l 12,0 0,12 -12,0 z M 300,408 l 12,0 0,12 -12,0 z M 312,408 l 12,0 0,12 -12,0 z M 324,408 l 12,0 0,12 -12,0 z M 336,408 l 12,0 0,12 -12,0 z M 348,408 l 12,0 0,12 -12,0 z M 372,408 l 12,0 0,12 -12,0 z M 384,408 l 12,0 0,12 -12,0 z M 408,408 l 12,0 0,12 -12,0 z M 432,408 l 12,0 0,12 -12,0 z M 444,408 l 12,0 0,12 -12,0 z M 456,408 l 12,0 0,12 -12,0 z M 0,420 l 12,0 0,12 -12,0 z M 72,420 l 12,0 0,12 -12,0 z M 108,420 l 12,0 0,12 -12,0 z M 144,420 l 12,0 0,12 -12,0 z M 168,420 l 12,0 0,12 -12,0 z M 228,420 l 12,0 0,12 -12,0 z M 240,420 l 12,0 0,12 -12,0 z M 252,420 l 12,0 0,12 -12,0 z M 264,420 l 12,0 0,12 -12,0 z M 276,420 l 12,0 0,12 -12,0 z M 300,420 l 12,0 0,12 -12,0 z M 312,420 l 12,0 0,12 -12,0 z M 324,420 l 12,0 0,12 -12,0 z M 336,420 l 12,0 0,12 -12,0 z M 348,420 l 12,0 0,12 -12,0 z M 360,420 l 12,0 0,12 -12,0 z M 384,420 l 12,0 0,12 -12,0 z M 432,420 l 12,0 0,12 -12,0 z M 444,420 l 12,0 0,12 -12,0 z M 0,432 l 12,0 0,12 -12,0 z M 24,432 l 12,0 0,12 -12,0 z M 36,432 l 12,0 0,12 -12,0 z M 48,432 l 12,0 0,12 -12,0 z M 72,432 l 12,0 0,12 -12,0 z M 96,432 l 12,0 0,12 -12,0 z M 120,432 l 12,0 0,12 -12,0 z M 132,432 l 12,0 0,12 -12,0 z M 156,432 l 12,0 0,12 -12,0 z M 168,432 l 12,0 0,12 -12,0 z M 180,432 l 12,0 0,12 -12,0 z M 192,432 l 12,0 0,12 -12,0 z M 240,432 l 12,0 0,12 -12,0 z M 264,432 l 12,0 0,12 -12,0 z M 276,432 l 12,0 0,12 -12,0 z M 288,432 l 12,0 0,12 -12,0 z M 300,432 l 12,0 0,12 -12,0 z M 312,432 l 12,0 0,12 -12,0 z M 336,432 l 12,0 0,12 -12,0 z M 384,432 l 12,0 0,12 -12,0 z M 396,432 l 12,0 0,12 -12,0 z M 408,432 l 12,0 0,12 -12,0 z M 420,432 l 12,0 0,12 -12,0 z M 432,432 l 12,0 0,12 -12,0 z M 444,432 l 12,0 0,12 -12,0 z M 456,432 l 12,0 0,12 -12,0 z M 468,432 l 12,0 0,12 -12,0 z M 480,432 l 12,0 0,12 -12,0 z M 0,444 l 12,0 0,12 -12,0 z M 24,444 l 12,0 0,12 -12,0 z M 36,444 l 12,0 0,12 -12,0 z M 48,444 l 12,0 0,12 -12,0 z M 72,444 l 12,0 0,12 -12,0 z M 96,444 l 12,0 0,12 -12,0 z M 120,444 l 12,0 0,12 -12,0 z M 144,444 l 12,0 0,12 -12,0 z M 156,444 l 12,0 0,12 -12,0 z M 168,444 l 12,0 0,12 -12,0 z M 180,444 l 12,0 0,12 -12,0 z M 192,444 l 12,0 0,12 -12,0 z M 216,444 l 12,0 0,12 -12,0 z M 252,444 l 12,0 0,12 -12,0 z M 264,444 l 12,0 0,12 -12,0 z M 276,444 l 12,0 0,12 -12,0 z M 312,444 l 12,0 0,12 -12,0 z M 336,444 l 12,0 0,12 -12,0 z M 360,444 l 12,0 0,12 -12,0 z M 396,444 l 12,0 0,12 -12,0 z M 420,444 l 12,0 0,12 -12,0 z M 480,444 l 12,0 0,12 -12,0 z M 0,456 l 12,0 0,12 -12,0 z M 24,456 l 12,0 0,12 -12,0 z M 36,456 l 12,0 0,12 -12,0 z M 48,456 l 12,0 0,12 -12,0 z M 72,456 l 12,0 0,12 -12,0 z M 96,456 l 12,0 0,12 -12,0 z M 132,456 l 12,0 0,12 -12,0 z M 144,456 l 12,0 0,12 -12,0 z M 156,456 l 12,0 0,12 -12,0 z M 192,456 l 12,0 0,12 -12,0 z M 204,456 l 12,0 0,12 -12,0 z M 216,456 l 12,0 0,12 -12,0 z M 240,456 l 12,0 0,12 -12,0 z M 252,456 l 12,0 0,12 -12,0 z M 264,456 l 12,0 0,12 -12,0 z M 288,456 l 12,0 0,12 -12,0 z M 324,456 l 12,0 0,12 -12,0 z M 336,456 l 12,0 0,12 -12,0 z M 360,456 l 12,0 0,12 -12,0 z M 372,456 l 12,0 0,12 -12,0 z M 396,456 l 12,0 0,12 -12,0 z M 408,456 l 12,0 0,12 -12,0 z M 420,456 l 12,0 0,12 -12,0 z M 432,456 l 12,0 0,12 -12,0 z M 444,456 l 12,0 0,12 -12,0 z M 456,456 l 12,0 0,12 -12,0 z M 468,456 l 12,0 0,12 -12,0 z M 0,468 l 12,0 0,12 -12,0 z M 72,468 l 12,0 0,12 -12,0 z M 144,468 l 12,0 0,12 -12,0 z M 156,468 l 12,0 0,12 -12,0 z M 192,468 l 12,0 0,12 -12,0 z M 228,468 l 12,0 0,12 -12,0 z M 240,468 l 12,0 0,12 -12,0 z M 252,468 l 12,0 0,12 -12,0 z M 276,468 l 12,0 0,12 -12,0 z M 288,468 l 12,0 0,12 -12,0 z M 300,468 l 12,0 0,12 -12,0 z M 324,468 l 12,0 0,12 -12,0 z M 336,468 l 12,0 0,12 -12,0 z M 360,468 l 12,0 0,12 -12,0 z M 372,468 l 12,0 0,12 -12,0 z M 384,468 l 12,0 0,12 -12,0 z M 432,468 l 12,0 0,12 -12,0 z M 444,468 l 12,0 0,12 -12,0 z M 468,468 l 12,0 0,12 -12,0 z M 0,480 l 12,0 0,12 -12,0 z M 12,480 l 12,0 0,12 -12,0 z M 24,480 l 12,0 0,12 -12,0 z M 36,480 l 12,0 0,12 -12,0 z M 48,480 l 12,0 0,12 -12,0 z M 60,480 l 12,0 0,12 -12,0 z M 72,480 l 12,0 0,12 -12,0 z M 144,480 l 12,0 0,12 -12,0 z M 168,480 l 12,0 0,12 -12,0 z M 216,480 l 12,0 0,12 -12,0 z M 240,480 l 12,0 0,12 -12,0 z M 252,480 l 12,0 0,12 -12,0 z M 264,480 l 12,0 0,12 -12,0 z M 276,480 l 12,0 0,12 -12,0 z M 288,480 l 12,0 0,12 -12,0 z M 324,480 l 12,0 0,12 -12,0 z M 348,480 l 12,0 0,12 -12,0 z M 360,480 l 12,0 0,12 -12,0 z M 372,480 l 12,0 0,12 -12,0 z M 420,480 l 12,0 0,12 -12,0 z M 432,480 l 12,0 0,12 -12,0 z M 456,480 l 12,0 0,12 -12,0 z " />
	</g>
	<g id="android-badge">
		<rect x="202" y="202" width="88" height="88" style="fill:rgb(255, 255, 255)" />
		<g transform="translate(204 204) scale(3.45)" style="color:rgb(88, 146, 49)">
			<path d="M6.2 9.1h11.6v8.9c0 1.05-.85 1.9-1.9 1.9H8.1c-1.05 0-1.9-.85-1.9-1.9V9.1Z" style="fill:currentColor" />
			<path d="M6.15 8.05C6.45 5.15 8.92 2.9 12 2.9s5.55 2.25 5.85 5.15H6.15Z" style="fill:currentColor" />
			<path d="M5.1 10.1v5.8c0 .86-.69 1.55-1.55 1.55S2 16.76 2 15.9v-5.8c0-.86.69-1.55 1.55-1.55S5.1 9.24 5.1 10.1Z" style="fill:currentColor" />
			<path d="M22 10.1v5.8c0 .86-.69 1.55-1.55 1.55s-1.55-.69-1.55-1.55v-5.8c0-.86.69-1.55 1.55-1.55S22 9.24 22 10.1Z" style="fill:currentColor" />
			<path d="M8.35 19.1h2.45v3c0 .86-.69 1.55-1.55 1.55S7.7 22.96 7.7 22.1v-3h.65Z" style="fill:currentColor" />
			<path d="M13.2 19.1h2.45v3c0 .86-.69 1.55-1.55 1.55s-1.55-.69-1.55-1.55v-3h.65Z" style="fill:currentColor" />
			<path d="M8.6 2.1 7.3.35M15.4 2.1 16.7.35" style="fill:none;stroke:currentColor;stroke-linecap:round;stroke-width:1.1" />
			<path d="M9.35 6.1a.65.65 0 1 0 0-1.3.65.65 0 0 0 0 1.3ZM14.65 6.1a.65.65 0 1 0 0-1.3.65.65 0 0 0 0 1.3Z" style="fill:rgb(220, 235, 235)" />
		</g>
	</g>
</svg>
